<svg xmlns="http://www.w3.org/2000/svg" width="1184" height="832" class="svgbob"><style>.svgbob line, .svgbob path, .svgbob circle, .svgbob rect, .svgbob polygon {
    stroke: black;
    stroke-width: 2;
    stroke-opacity: 1;
    fill-opacity: 1;
    stroke-linecap: round;
    stroke-linejoin: miter;
}
.svgbob text {
    white-space: pre;
    fill: black;
    font-family: Iosevka Fixed, monospace;
    font-size: 14px;
}
.svgbob rect.backdrop {
    stroke: none;
    fill: white;
}
.svgbob .broken {
    stroke-dasharray: 8;
}
.svgbob .filled {
    fill: black;
}
.svgbob .bg_filled {
    fill: white;
    stroke-width: 1;
}
.svgbob .nofill {
    fill: white;
}
.svgbob .end_marked_arrow {
    marker-end: url(#arrow);
}
.svgbob .start_marked_arrow {
    marker-start: url(#arrow);
}
.svgbob .end_marked_diamond {
    marker-end: url(#diamond);
}
.svgbob .start_marked_diamond {
    marker-start: url(#diamond);
}
.svgbob .end_marked_circle {
    marker-end: url(#circle);
}
.svgbob .start_marked_circle {
    marker-start: url(#circle);
}
.svgbob .end_marked_open_circle {
    marker-end: url(#open_circle);
}
.svgbob .start_marked_open_circle {
    marker-start: url(#open_circle);
}
.svgbob .end_marked_big_open_circle {
    marker-end: url(#big_open_circle);
}
.svgbob .start_marked_big_open_circle {
    marker-start: url(#big_open_circle);
}<!--separator--></style><defs><marker id="arrow" viewBox="-2 -2 8 8" refX="4" refY="2" markerWidth="7" markerHeight="7" orient="auto-start-reverse"><polygon points="0,0 0,4 4,2 0,0"></polygon></marker><marker id="diamond" viewBox="-2 -2 8 8" refX="4" refY="2" markerWidth="7" markerHeight="7" orient="auto-start-reverse"><polygon points="0,2 2,0 4,2 2,4 0,2"></polygon></marker><marker id="circle" viewBox="0 0 8 8" refX="4" refY="4" markerWidth="7" markerHeight="7" orient="auto-start-reverse"><circle cx="4" cy="4" r="2" class="filled"></circle></marker><marker id="open_circle" viewBox="0 0 8 8" refX="4" refY="4" markerWidth="7" markerHeight="7" orient="auto-start-reverse"><circle cx="4" cy="4" r="2" class="bg_filled"></circle></marker><marker id="big_open_circle" viewBox="0 0 8 8" refX="4" refY="4" markerWidth="7" markerHeight="7" orient="auto-start-reverse"><circle cx="4" cy="4" r="3" class="bg_filled"></circle></marker></defs><rect class="backdrop" x="0" y="0" width="1184" height="832"></rect><text x="2" y="12" >AE</text><line x1="16" y1="8" x2="24" y2="8" class="solid"></line><path d="M 32,0 A 16,16 0,0,0 32,16" class="nofill"></path><text x="34" y="12" >dp</text><path d="M 48,0 A 16,16 0,0,1 48,16" class="nofill"></path><text x="58" y="12" >MERF</text><text x="98" y="12" >Generator</text><text x="50" y="44" >@@</text><text x="114" y="44" >@@@@@@@@</text><text x="26" y="60" >@@@@</text><text x="82" y="60" >@@@@</text><text x="178" y="60" >@@</text><text x="10" y="76" >@@</text><text x="42" y="76" >@@</text><text x="74" y="76" >@</text><text x="122" y="76" >@@@@</text><text x="186" y="76" >@@</text><text x="2" y="92" >@@</text><text x="42" y="92" >@@</text><text x="74" y="92" >@</text><text x="154" y="92" >@@@</text><text x="186" y="92" >@@</text><text x="2" y="108" >@@</text><text x="42" y="108" >@@</text><text x="74" y="108" >@@</text><text x="122" y="108" >@@@</text><text x="178" y="108" >@@@</text><text x="2" y="124" >@@</text><text x="42" y="124" >@@</text><text x="74" y="124" >@</text><text x="130" y="124" >@</text><text x="154" y="124" >@@</text><text x="194" y="124" >@@</text><text x="10" y="140" >@@@</text><text x="66" y="140" >@@@</text><text x="122" y="140" >@@</text><text x="154" y="140" >@@</text><text x="194" y="140" >@@</text><text x="10" y="156" >@@</text><text x="34" y="156" >@@@</text><text x="130" y="156" >@</text><text x="154" y="156" >@@</text><text x="194" y="156" >@@</text><text x="10" y="172" >@@</text><text x="58" y="172" >@@@@</text><text x="130" y="172" >@</text><text x="154" y="172" >@@</text><text x="186" y="172" >@@</text><text x="18" y="188" >@@</text><text x="98" y="188" >@@@@</text><text x="154" y="188" >@@@@</text><text x="34" y="204" >@@@@@@@@</text><text x="146" y="204" >@@</text><text x="82" y="220" >@@@@@@@@@</text><polygon points="120,236 124,224 128,236" class="filled"></polygon><polygon points="120,532 128,532 124,544" class="filled"></polygon><text x="370" y="44" >..</text><line x1="384" y1="40" x2="464" y2="40" class="solid"></line><text x="466" y="44" >..</text><line x1="484" y1="32" x2="484" y2="48" class="solid"></line><text x="378" y="76" >.</text><text x="378" y="108" >.</text><line x1="384" y1="104" x2="464" y2="104" class="solid"></line><text x="466" y="108" >..</text><line x1="484" y1="96" x2="484" y2="112" class="solid"></line><line x1="372" y1="124" x2="372" y2="176" class="solid"></line><text x="378" y="140" >.</text><line x1="508" y1="32" x2="508" y2="48" class="solid"></line><line x1="528" y1="48" x2="536" y2="48" class="solid"></line><text x="538" y="44" >.</text><text x="530" y="76" >.</text><text x="530" y="108" >.`</text><line x1="540" y1="124" x2="540" y2="160" class="solid"></line><text x="530" y="140" >.</text><text x="530" y="172" >.`</text><text x="98" y="92" >@@</text><text x="250" y="92" >Generate</text><line x1="224" y1="104" x2="344" y2="104" class="solid"></line><polygon points="344,100 352,104 344,108" class="filled"></polygon><polygon points="760,276 768,276 764,288" class="filled"></polygon><polygon points="968,84 976,88 968,92" class="filled"></polygon><line x1="864" y1="392" x2="992" y2="392" class="solid"></line><polygon points="992,388 1000,392 992,396" class="filled"></polygon><polygon points="1000,724 1008,728 1000,732" class="filled"></polygon><text x="1010" y="92" >Utility</text><text x="1074" y="92" >AE</text><line x1="1088" y1="88" x2="1096" y2="88" class="solid"></line><path d="M 1104,80 A 16,16 0,0,0 1104,96" class="nofill"></path><text x="1106" y="92" >dp</text><path d="M 1120,80 A 16,16 0,0,1 1120,96" class="nofill"></path><text x="1130" y="92" >MERF</text><line x1="508" y1="96" x2="508" y2="112" class="solid"></line><text x="98" y="156" >@@</text><text x="370" y="316" >Private</text><text x="434" y="316" >Training</text><text x="506" y="316" >Set</text><text x="658" y="332" >Anomaly</text><text x="722" y="332" >Detection</text><path d="M 808,320 A 16,16 0,0,0 808,336" class="nofill"></path><text x="810" y="332" >LSTM</text><line x1="840" y1="328" x2="848" y2="328" class="solid"></line><text x="850" y="332" >AE</text><path d="M 864,320 A 16,16 0,0,1 864,336" class="nofill"></path><line x1="680" y1="360" x2="752" y2="360" class="broken"></line><path d="M 728,352 A 16,16 0,0,0 728,368" class="nofill"></path><line x1="752" y1="368" x2="760" y2="368" class="solid"></line><text x="762" y="364" >.</text><line x1="712" y1="384" x2="720" y2="384" class="solid"></line><text x="722" y="380" >{</text><path d="M 728,384 A 16,16 0,0,1 728,400" class="nofill"></path><line x1="744" y1="392" x2="776" y2="392" class="broken"></line><text x="802" y="396" >,</text><text x="714" y="412" >`</text><line x1="720" y1="408" x2="728" y2="408" class="solid"></line><text x="730" y="412" >,</text><line x1="736" y1="416" x2="744" y2="416" class="solid"></line><text x="746" y="412" >.</text><text x="762" y="412" >`.,</text><line x1="800" y1="408" x2="816" y2="408" class="solid"></line><line x1="832" y1="416" x2="840" y2="416" class="solid"></line><text x="842" y="412" >,</text><text x="746" y="428" >(</text><line x1="768" y1="424" x2="784" y2="424" class="broken"></line><line x1="800" y1="424" x2="808" y2="424" class="solid"></line><line x1="808" y1="432" x2="816" y2="432" class="solid"></line><text x="826" y="428" >`,</text><text x="858" y="428" >}</text><line x1="720" y1="448" x2="728" y2="448" class="solid"></line><line x1="744" y1="440" x2="752" y2="440" class="broken"></line><line x1="752" y1="448" x2="760" y2="448" class="solid"></line><line x1="760" y1="440" x2="800" y2="440" class="broken"></line><text x="802" y="444" >`,</text><text x="842" y="444" >'</text><line x1="720" y1="456" x2="728" y2="456" class="solid"></line><text x="730" y="460" >^</text><path d="M 744,448 A 16,16 0,0,0 744,464" class="nofill"></path><line x1="776" y1="464" x2="792" y2="464" class="solid"></line><text x="794" y="460" >;</text><line x1="800" y1="456" x2="808" y2="456" class="solid"></line><text x="810" y="460" >,</text><path d="M 824,448 A 16,16 0,0,0 824,464" class="nofill"></path><line x1="744" y1="472" x2="776" y2="472" class="broken"></line><text x="786" y="476" >{</text><line x1="792" y1="480" x2="800" y2="480" class="solid"></line><line x1="808" y1="472" x2="816" y2="472" class="solid"></line><line x1="816" y1="480" x2="824" y2="480" class="solid"></line><text x="802" y="492" >`</text><line x1="808" y1="480" x2="816" y2="496" class="solid"></line><text x="834" y="492" >}</text><text x="818" y="508" >{</text><text x="834" y="508" >}</text><line x1="544" y1="392" x2="648" y2="392" class="solid"></line><polygon points="648,388 656,392 648,396" class="filled"></polygon><line x1="696" y1="440" x2="704" y2="440" class="solid"></line><text x="1018" y="396" >Utility</text><text x="1082" y="396" >Baseline</text><polygon points="776,524 780,512 784,524" class="filled"></polygon><text x="18" y="604" >AE</text><line x1="32" y1="600" x2="40" y2="600" class="solid"></line><path d="M 48,592 A 16,16 0,0,0 48,608" class="nofill"></path><text x="50" y="604" >dp</text><path d="M 64,592 A 16,16 0,0,1 64,608" class="nofill"></path><text x="74" y="604" >WGAN</text><text x="114" y="604" >Generator</text><text x="50" y="636" >@@</text><text x="114" y="636" >@@@@@@@@</text><text x="26" y="652" >@@@@</text><text x="82" y="652" >@@@@</text><text x="178" y="652" >@@</text><text x="10" y="668" >@@</text><text x="42" y="668" >@@</text><text x="74" y="668" >@</text><text x="122" y="668" >@@@@</text><text x="186" y="668" >@@</text><text x="2" y="684" >@@</text><text x="42" y="684" >@@</text><text x="74" y="684" >@</text><text x="154" y="684" >@@@</text><text x="186" y="684" >@@</text><text x="2" y="700" >@@</text><text x="42" y="700" >@@</text><text x="74" y="700" >@@</text><text x="122" y="700" >@@@</text><text x="178" y="700" >@@@</text><text x="2" y="716" >@@</text><text x="42" y="716" >@@</text><text x="74" y="716" >@</text><text x="130" y="716" >@</text><text x="154" y="716" >@@</text><text x="194" y="716" >@@</text><text x="10" y="732" >@@@</text><text x="66" y="732" >@@@</text><text x="122" y="732" >@@</text><text x="154" y="732" >@@</text><text x="194" y="732" >@@</text><text x="10" y="748" >@@</text><text x="34" y="748" >@@@</text><text x="130" y="748" >@</text><text x="154" y="748" >@@</text><text x="194" y="748" >@@</text><text x="10" y="764" >@@</text><text x="58" y="764" >@@@@</text><text x="130" y="764" >@</text><text x="154" y="764" >@@</text><text x="186" y="764" >@@</text><text x="18" y="780" >@@</text><text x="98" y="780" >@@@@</text><text x="154" y="780" >@@@@</text><text x="34" y="796" >@@@@@@@@</text><text x="146" y="796" >@@</text><text x="82" y="812" >@@@@@@@@@</text><text x="98" y="684" >@@</text><text x="234" y="716" >Generate</text><line x1="224" y1="728" x2="336" y2="728" class="solid"></line><polygon points="336,724 344,728 336,732" class="filled"></polygon><text x="1026" y="732" >Utility</text><text x="1090" y="732" >AE</text><line x1="1104" y1="728" x2="1112" y2="728" class="solid"></line><path d="M 1120,720 A 16,16 0,0,0 1120,736" class="nofill"></path><text x="1122" y="732" >dp</text><path d="M 1136,720 A 16,16 0,0,1 1136,736" class="nofill"></path><text x="1146" y="732" >WGAN</text><text x="98" y="748" >@@</text><text x="378" y="92" >-..____________..-</text><text x="378" y="124" >-..____________..-</text><text x="378" y="156" >-..____________..-</text><text x="378" y="188" >-..____________..-</text><g><line x1="124" y1="236" x2="124" y2="532" class="solid"></line><line x1="124" y1="376" x2="360" y2="376" class="solid"></line></g><g><path d="M 376,56 A 4,4 0,0,0 372,60" class="nofill"></path><line x1="372" y1="60" x2="372" y2="112" class="solid"></line><line x1="376" y1="56" x2="392" y2="56" class="broken"></line></g><g><line x1="520" y1="56" x2="536" y2="56" class="broken"></line><path d="M 536,56 A 4,4 0,0,1 540,60" class="nofill"></path><line x1="540" y1="60" x2="540" y2="96" class="solid"></line></g><g><line x1="552" y1="88" x2="764" y2="88" class="solid"></line><line x1="764" y1="88" x2="764" y2="276" class="solid"></line></g><g><line x1="892" y1="88" x2="968" y2="88" class="solid"></line><line x1="892" y1="88" x2="892" y2="728" class="solid"></line><line x1="892" y1="728" x2="1000" y2="728" class="solid"></line></g><g><line x1="380" y1="328" x2="508" y2="328" class="solid"></line><line x1="380" y1="328" x2="380" y2="456" class="solid"></line><line x1="508" y1="328" x2="508" y2="456" class="solid"></line><line x1="380" y1="360" x2="508" y2="360" class="solid"></line><line x1="380" y1="392" x2="508" y2="392" class="solid"></line><line x1="380" y1="424" x2="508" y2="424" class="solid"></line><line x1="380" y1="456" x2="508" y2="456" class="solid"></line></g><g><path d="M 792,368 A 16,16 0,0,1 792,384" class="nofill"></path><path d="M 792,384 A 16,16 0,0,0 792,400" class="nofill"></path><path d="M 792,400 A 16,16 0,0,1 792,416" class="nofill"></path><path d="M 792,416 A 16,16 0,0,0 792,432" class="nofill"></path></g><g><path d="M 824,368 A 16,16 0,0,1 824,384" class="nofill"></path><line x1="824" y1="384" x2="822" y2="388" class="solid"></line><line x1="808" y1="392" x2="816" y2="392" class="solid"></line><path d="M 822,388 A 8,8 0,0,1 816,392" class="nofill"></path></g><g><path d="M 832,384 A 16,16 0,0,1 832,400" class="nofill"></path><line x1="832" y1="400" x2="830" y2="404" class="solid"></line><path d="M 830,404 A 8,8 0,0,1 824,408" class="nofill"></path></g><g><line x1="840" y1="400" x2="848" y2="400" class="solid"></line><path d="M 848,400 A 16,16 0,0,1 848,416" class="nofill"></path></g><g><path d="M 760,408 A 8,8 0,0,0 754,412" class="nofill"></path><line x1="754" y1="412" x2="752" y2="416" class="solid"></line></g><g><line x1="712" y1="432" x2="720" y2="432" class="solid"></line><path d="M 720,416 A 16,16 0,0,1 720,432" class="nofill"></path></g><g><path d="M 840,440 A 8,8 0,0,0 834,444" class="nofill"></path><line x1="834" y1="444" x2="832" y2="448" class="solid"></line><path d="M 832,448 A 16,16 0,0,0 832,464" class="nofill"></path><path d="M 832,464 A 16,16 0,0,0 832,480" class="nofill"></path></g><g><path d="M 856,432 A 16,16 0,0,1 856,448" class="nofill"></path><path d="M 856,448 A 16,16 0,0,1 856,464" class="nofill"></path></g><g><path d="M 840,448 A 16,16 0,0,0 840,464" class="nofill"></path><path d="M 840,448 A 16,16 0,0,1 840,464" class="nofill"></path><path d="M 840,464 A 16,16 0,0,0 840,480" class="nofill"></path><path d="M 840,464 A 16,16 0,0,1 840,480" class="nofill"></path></g><g><path d="M 848,448 A 16,16 0,0,1 848,464" class="nofill"></path><path d="M 848,464 A 16,16 0,0,1 848,480" class="nofill"></path></g><g><path d="M 704,392 A 8,8 0,0,0 698,396" class="nofill"></path><line x1="698" y1="396" x2="696" y2="400" class="solid"></line><path d="M 696,400 A 16,16 0,0,0 696,416" class="nofill"></path><line x1="696" y1="416" x2="698" y2="420" class="solid"></line><path d="M 698,420 A 8,8 0,0,0 704,424" class="nofill"></path></g><g><path d="M 688,416 A 16,16 0,0,0 688,432" class="nofill"></path><path d="M 688,432 A 16,16 0,0,0 688,448" class="nofill"></path><line x1="688" y1="448" x2="696" y2="448" class="solid"></line><line x1="696" y1="448" x2="704" y2="456" class="solid"></line><line x1="704" y1="456" x2="712" y2="456" class="broken"></line></g><g><line x1="780" y1="524" x2="780" y2="728" class="solid"></line><line x1="584" y1="728" x2="780" y2="728" class="solid"></line></g><g><line x1="372" y1="632" x2="524" y2="632" class="solid"></line><line x1="372" y1="632" x2="372" y2="664" class="solid"></line><line x1="524" y1="632" x2="524" y2="664" class="solid"></line><line x1="340" y1="664" x2="524" y2="664" class="solid"></line><line x1="340" y1="664" x2="340" y2="696" class="solid"></line><line x1="500" y1="664" x2="500" y2="696" class="solid"></line><line x1="340" y1="696" x2="540" y2="696" class="solid"></line><line x1="404" y1="696" x2="404" y2="744" class="solid"></line><line x1="540" y1="696" x2="540" y2="744" class="solid"></line><line x1="372" y1="744" x2="540" y2="744" class="solid"></line><line x1="372" y1="744" x2="372" y2="776" class="solid"></line><line x1="476" y1="744" x2="476" y2="776" class="solid"></line><line x1="372" y1="776" x2="476" y2="776" class="solid"></line></g></svg>